<svg xmlns="http://www.w3.org/2000/svg" xmlns:xlink="http://www.w3.org/1999/xlink" viewBox="0 0 10.22 24.98"><defs><style>.a,.d{fill:#009245;}.a,.b,.c,.d,.f,.h,.i{stroke:#000;stroke-miterlimit:10;}.a,.b,.c,.f{stroke-width:0.5px;}.b{fill:gray;}.d{stroke-width:0.25px;}.e{fill:url(#a);}.f,.g{fill:#fff;}.h{fill:#ccc;stroke-width:0.1px;}.i{stroke-width:0.01px;}</style><linearGradient id="a" x1="1.33" y1="1.6" x2="8.89" y2="1.6" gradientUnits="userSpaceOnUse"><stop offset="0" stop-color="#fff"/><stop offset="1"/></linearGradient></defs><title>資源組合</title><path class="a" d="M9.61,2.41,8.89.25H1.33L.61,2.41v4.5h0c0,.71.08.91.36.91H9.26c.28,0,.36-.19.36-.91h0V2.23"/><rect class="b" x="0.61" y="8.17" width="9" height="2.52"/><rect class="a" x="0.61" y="10.69" width="9" height="14.04"/><polygon class="c" points="0.61 15.01 0.25 15.73 0.25 16.81 0.61 17.38 0.61 15.01"/><polygon class="c" points="9.61 15.01 9.97 15.73 9.97 16.81 9.61 17.38 9.61 15.01"/><polyline class="c" points="0.61 3.49 0.25 4.21 0.25 5.29 0.61 5.86"/><polygon class="c" points="9.61 3.49 9.97 4.21 9.97 5.29 9.61 5.86 9.61 3.49"/><rect class="d" x="1.33" y="2.41" width="7.56" height="5.04" rx="0.05" ry="0.05"/><polyline class="e" points="1.33 2.41 1.69 0.79 8.53 0.79 8.89 2.41"/><path class="f" d="M4.93,8.17v0Z"/><path class="f" d="M2.77,8.17v0Z"/><path class="f" d="M7.09,8.17v0Z"/><path class="g" d="M3.78,16.61l.29.18s.07,0,.07-.06a.27.27,0,0,0,0-.11l-.64-1.2-1.42,0a.09.09,0,0,0-.1.1s0,0,.06.06l.29.18L2,16.27a.7.7,0,0,0-.13.34.56.56,0,0,0,.09.27l1,1.68a1.43,1.43,0,0,1,0-.3.91.91,0,0,1,.16-.5l.74-1.16Z"/><path class="g" d="M4.16,15.63,5,14.39q-.45-1-.95-1a.44.44,0,0,0-.41.17l-.75,1.2,1.31.88Z"/><path class="g" d="M3.51,19H5v-1.6H3.56a5.39,5.39,0,0,0-.34.53,1,1,0,0,0-.11.45q0,.62.4.62Z"/><path class="g" d="M6.67,15.33l.68-1.15a.25.25,0,0,0,0-.13q0-.08-.05-.08l-.07,0L7,14.15l-.29-.57a.77.77,0,0,0-.76-.38H4.13a1.41,1.41,0,0,1,.44.19,2.34,2.34,0,0,1,.56.81l.36.74-.26.13a.07.07,0,0,0,0,.07s0,.07.08.07l1.41.11Z"/><path class="g" d="M7.35,18.73l1-1.81a1.11,1.11,0,0,1-.48.34,2,2,0,0,1-.59.07H6.17V17.1q0-.13-.06-.13A.08.08,0,0,0,6,17l-.7,1.22.73,1.12c.05.08.1.12.14.1s.06,0,.06-.06V19h.61a.5.5,0,0,0,.48-.26Z"/><path class="g" d="M6.92,17.1h.66a.79.79,0,0,0,.49-.21.6.6,0,0,0,.27-.46.39.39,0,0,0-.07-.22L7.49,15l-1.36.79.79,1.3Z"/><rect class="h" x="3.13" y="4.93" width="3.6" height="2.16"/><circle class="i" cx="4.21" cy="6.01" r="0.36"/></svg>