<svg id="レイヤー_1" data-name="レイヤー 1" xmlns="http://www.w3.org/2000/svg" viewBox="0 0 10.22 24.98"><defs><style>.cls-1{fill:#7f47dd;stroke:#000;stroke-miterlimit:10;stroke-width:0.5px;}</style></defs><title>公社複合</title><path class="cls-1" d="M9.61,2.41,8.89.25H1.33L.61,2.41v4.5h0c0,.71.08.91.36.91H9.26c.28,0,.36-.19.36-.91h0V2.23m-9,5.94h9v2.52h-9Zm0,2.52h9v14h-9ZM.61,15l-.36.72v1.08l.36.57Zm9,0,.36.72v1.08l-.36.57ZM.61,3.49l-.36.72V5.29l.36.57m9-2.37.36.72V5.29l-.36.57ZM1.33,2.41,1.69.79H8.53l.36,1.62m-4,5.76Zm-2.16,0Zm4.32,0ZM3.78,16.61l.29.18s.07,0,.07-.06a.27.27,0,0,0,0-.11l-.64-1.2H2.08a.09.09,0,0,0-.1.1l.06.06.29.18L2,16.27a.7.7,0,0,0-.13.34.56.56,0,0,0,.09.27l1,1.68a1.43,1.43,0,0,1,0-.3.91.91,0,0,1,.16-.5l.74-1.16Zm.38-1L5,14.39q-.45-1-.95-1a.44.44,0,0,0-.41.17l-.75,1.2,1.31.88ZM3.51,19H5V17.4H3.56a5.39,5.39,0,0,0-.34.53,1,1,0,0,0-.11.45Q3.11,19,3.51,19Zm3.16-3.67.68-1.15a.25.25,0,0,0,0-.13q0-.08-.05-.08H7.23L7,14.15l-.29-.57a.77.77,0,0,0-.76-.38H4.13a1.41,1.41,0,0,1,.44.19,2.34,2.34,0,0,1,.56.81l.36.74-.26.13a.07.07,0,0,0,0,.07.07.07,0,0,0,.08.07l1.41.11Zm.68,3.4,1-1.81a1.11,1.11,0,0,1-.48.34,2,2,0,0,1-.59.07H6.17V17.1q0-.13-.06-.13A.08.08,0,0,0,6,17H6l-.7,1.22L6,19.34c.05.08.1.12.14.1s.06,0,.06-.06V19h.61a.5.5,0,0,0,.48-.26ZM6.92,17.1h.66a.79.79,0,0,0,.49-.21.6.6,0,0,0,.27-.46.39.39,0,0,0-.07-.22L7.49,15l-1.36.79.79,1.3ZM3.13,4.93h3.6V7.09H3.13Zm1.08.72A.36.36,0,1,1,3.85,6,.36.36,0,0,1,4.21,5.65Z"/></svg>